<svg width="175.000000" height="175.000000" viewBox="0 0 175 175" fill="none" xmlns="http://www.w3.org/2000/svg" xmlns:xlink="http://www.w3.org/1999/xlink">
	<desc>
			Created with Pixso.
	</desc>
	<defs>
		<clipPath id="clip121_1780">
			<rect id="Icon" width="34.000000" height="34.000000" transform="translate(70.500000 70.000000)" fill="white" fill-opacity="0"/>
		</clipPath>
		<clipPath id="clip121_1778">
			<rect id="Sub Container" rx="86.704544" width="173.409088" height="173.409088" transform="translate(0.795455 0.795455)" fill="white" fill-opacity="0"/>
		</clipPath>
	</defs>
	<rect id="Sub Container" rx="86.704544" width="173.409088" height="173.409088" transform="translate(0.795455 0.795455)" fill="#141414" fill-opacity="1.000000"/>
	<g clip-path="url(#clip121_1778)">
		<rect id="Shape" x="47.727539" y="47.727295" rx="39.772728" width="79.545456" height="79.545456" fill="#1A1A1A" fill-opacity="1.000000"/>
		<rect id="Shape" x="48.522949" y="48.522766" rx="38.977272" width="77.954544" height="77.954544" stroke="#262626" stroke-opacity="1.000000" stroke-width="1.590909"/>
		<g clip-path="url(#clip121_1780)">
			<path id="Vector 431" d="M76.87 97.62L98.12 76.37M98.12 92.31L98.12 76.37L82.18 " stroke="#FFFFFF" stroke-opacity="1.000000" stroke-width="2.000000" stroke-linejoin="round"/>
		</g>
		<path id="Text" d="M73.81 148.64C74.32 145.27 76.58 143.53 79.87 144.03L83.52 144.59L81.89 155.38L78.15 154.81C74.94 154.32 73.3 152 73.81 148.64ZM80.19 153.39L81.32 145.98L79.71 145.74C77.46 145.39 76.13 146.45 75.75 148.93C75.37 151.41 76.33 152.8 78.52 153.14L80.19 153.39Z" fill="#FFFFFF" fill-opacity="1.000000" fill-rule="evenodd"/>
		<path id="Text" d="M63.92 150.62C64.12 150.07 64.74 149.8 65.32 150C65.9 150.21 66.22 150.82 66.03 151.36C65.83 151.91 65.2 152.19 64.62 151.98C64.04 151.77 63.73 151.16 63.92 150.62ZM67.55 140.88L69.37 141.52L66.62 149.23L64.81 148.59L67.55 140.88Z" fill="#FFFFFF" fill-opacity="1.000000" fill-rule="evenodd"/>
		<path id="Text" d="M55.98 144.59C54.3 143.68 53.74 142.37 54.17 141.03L55.81 141.7C55.68 142.24 55.86 142.89 56.64 143.32C57.35 143.7 58.07 143.66 58.33 143.17C58.57 142.75 58.41 142.34 57.77 141.78L56.69 140.85C55.49 139.82 55.17 138.83 55.72 137.81C56.46 136.45 58.24 136.2 60.04 137.18C61.8 138.13 62.49 139.52 61.98 140.95L60.24 140.22C60.45 139.49 60.13 138.88 59.35 138.46C58.54 138.02 57.81 138.1 57.54 138.59C57.32 139 57.48 139.44 58.06 139.94L59.15 140.86C60.38 141.9 60.65 142.94 60.08 143.99C59.36 145.32 57.72 145.53 55.98 144.59Z" fill="#FFFFFF" fill-opacity="1.000000" fill-rule="evenodd"/>
		<path id="Text" d="M46.59 131.05C47.81 129.8 49.6 129.7 51.18 131.02C53.06 132.59 53.07 134.87 51.49 136.78C49.88 138.7 47.61 139.06 45.77 137.52C44.24 136.24 43.92 134.46 44.96 133.01L46.37 134.19C45.98 134.89 46.04 135.72 46.75 136.31C47.66 137.07 48.91 136.82 49.97 135.55C51.04 134.26 51.08 132.99 50.16 132.22C49.51 131.68 48.7 131.66 48.01 132.23L46.59 131.05Z" fill="#FFFFFF" fill-opacity="1.000000" fill-rule="evenodd"/>
		<path id="Text" d="M37.17 121.83C39.17 120.29 41.44 120.47 42.91 122.37C44.37 124.26 43.96 126.5 41.96 128.05C39.94 129.6 37.67 129.42 36.21 127.53C34.75 125.62 35.16 123.38 37.17 121.83ZM40.76 126.51C41.94 125.59 42.48 124.35 41.67 123.3C40.88 122.27 39.54 122.47 38.36 123.39C37.17 124.3 36.62 125.55 37.41 126.58C38.22 127.63 39.57 127.42 40.76 126.51Z" fill="#FFFFFF" fill-opacity="1.000000" fill-rule="evenodd"/>
		<path id="Text" d="M28.01 113.41L27.14 111.55L35.79 110.73L36.69 112.66L30.51 118.77L29.64 116.9L34.35 112.62L34.31 112.55L28.01 113.41Z" fill="#FFFFFF" fill-opacity="1.000000" fill-rule="evenodd"/>
		<path id="Text" d="M29.39 97.04C30.85 97.06 32.04 98.14 32.46 100C32.99 102.42 31.72 104.24 29.21 104.8C26.74 105.34 24.73 104.22 24.23 101.93C23.79 99.97 24.65 98.01 27.45 97.39L28.03 97.26L29.26 102.82C30.63 102.51 31.25 101.52 30.98 100.3C30.8 99.49 30.31 98.95 29.57 98.84L29.39 97.04ZM25.69 101.58C25.94 102.71 26.96 103.27 27.99 103.1L27.16 99.35C26.08 99.6 25.45 100.5 25.69 101.58Z" fill="#FFFFFF" fill-opacity="1.000000" fill-rule="evenodd"/>
		<path id="Text" d="M30.97 88.92L31.01 90.85L22.83 91.01L22.79 89.14L24.15 89.12L24.15 89.03C23.2 88.75 22.65 87.98 22.63 87.04C22.63 86.83 22.64 86.52 22.67 86.35L24.44 86.31C24.39 86.48 24.34 86.88 24.35 87.21C24.37 88.27 25.12 89.04 26.16 89.02L30.97 88.92Z" fill="#FFFFFF" fill-opacity="1.000000" fill-rule="evenodd"/>
		<path id="Text" d="" fill="#FFFFFF" fill-opacity="1.000000" fill-rule="evenodd"/>
		<path id="Text" d="M29.88 68.93L22.12 70.5L22.84 68.38L28.27 67.4L28.3 67.3L24.58 63.22L25.3 61.11L30.51 67.06L34.36 68.37L33.73 70.23L29.88 68.93Z" fill="#FFFFFF" fill-opacity="1.000000" fill-rule="evenodd"/>
		<path id="Text" d="M38.26 52.16C40.4 53.51 41.02 55.7 39.75 57.73C38.48 59.76 36.24 60.16 34.09 58.81C31.94 57.46 31.31 55.27 32.59 53.24C33.86 51.21 36.1 50.82 38.26 52.16ZM35.12 57.15C36.39 57.95 37.74 58.02 38.44 56.9C39.14 55.79 38.48 54.61 37.21 53.82C35.94 53.02 34.58 52.94 33.89 54.04C33.18 55.17 33.85 56.36 35.12 57.15Z" fill="#FFFFFF" fill-opacity="1.000000" fill-rule="evenodd"/>
		<path id="Text" d="M46.42 46.56C47.02 45.95 47.21 44.88 46.32 44.01L42.94 40.68L44.3 39.3L50.12 45.05L48.81 46.38L47.77 45.36L47.71 45.43C48.1 46.34 47.96 47.4 47.09 48.27C45.96 49.42 44.39 49.43 42.99 48.05L39.28 44.39L40.63 43.02L44.13 46.47C44.87 47.2 45.77 47.22 46.42 46.56Z" fill="#FFFFFF" fill-opacity="1.000000" fill-rule="evenodd"/>
		<path id="Text" d="M55.64 40.93L54.05 42.02L49.42 35.27L50.96 34.22L51.74 35.34L51.8 35.29C51.52 34.34 51.86 33.46 52.64 32.93C52.81 32.81 53.07 32.65 53.24 32.58L54.24 34.04C54.07 34.09 53.71 34.27 53.44 34.46C52.56 35.06 52.33 36.11 52.92 36.97L55.64 40.93Z" fill="#FFFFFF" fill-opacity="1.000000" fill-rule="evenodd"/>
		<path id="Text" d="" fill="#FFFFFF" fill-opacity="1.000000" fill-rule="evenodd"/>
		<path id="Text" d="M77.02 26.27C77.85 29.58 76.44 32.05 73.22 32.87L69.63 33.78L66.96 23.19L70.62 22.27C73.77 21.47 76.18 22.97 77.02 26.27ZM69.29 24.37L71.13 31.63L72.71 31.23C74.91 30.68 75.73 29.19 75.12 26.75C74.5 24.33 73.08 23.41 70.93 23.95L69.29 24.37Z" fill="#FFFFFF" fill-opacity="1.000000" fill-rule="evenodd"/>
		<path id="Text" d="M85.75 31.02L83.83 31.08L83.54 22.9L85.4 22.84L85.45 24.2L85.54 24.2C85.8 23.24 86.57 22.68 87.51 22.65C87.72 22.64 88.02 22.65 88.2 22.67L88.26 24.45C88.1 24.4 87.69 24.36 87.36 24.37C86.3 24.41 85.55 25.17 85.58 26.21L85.75 31.02Z" fill="#FFFFFF" fill-opacity="1.000000" fill-rule="evenodd"/>
		<path id="Text" d="M100.85 30.15C100.28 31.49 98.84 32.2 96.96 31.89C94.52 31.49 93.3 29.63 93.72 27.1C94.13 24.61 95.91 23.16 98.23 23.54C100.21 23.86 101.71 25.39 101.25 28.22L101.15 28.81L95.53 27.88C95.31 29.27 96 30.21 97.23 30.41C98.05 30.55 98.74 30.3 99.11 29.65L100.85 30.15ZM98.01 25.02C96.87 24.84 95.97 25.58 95.74 26.6L99.54 27.22C99.71 26.12 99.1 25.2 98.01 25.02Z" fill="#FFFFFF" fill-opacity="1.000000" fill-rule="evenodd"/>
		<path id="Text" d="M110.8 34.62C110.21 35.13 109.27 35.39 108.08 34.9C106.64 34.31 105.87 33.08 106.48 31.59C107.18 29.88 108.77 30.02 110.3 30.46C111.7 30.87 112.25 31.06 112.46 30.55L112.47 30.52C112.77 29.78 112.49 29.17 111.66 28.83C110.79 28.47 110.11 28.71 109.72 29.15L108.15 28.23C109.11 27.01 110.62 26.81 112.21 27.46C113.66 28.05 115.04 29.32 114.22 31.32L112.15 36.39L110.43 35.69L110.86 34.65L110.8 34.62ZM108.22 32.26C107.95 32.92 108.34 33.48 109.09 33.78C110.16 34.22 111.13 33.79 111.48 32.95L111.85 32.05C111.54 32.15 110.55 31.88 110.06 31.75C109.21 31.54 108.5 31.58 108.22 32.26Z" fill="#FFFFFF" fill-opacity="1.000000" fill-rule="evenodd"/>
		<path id="Text" d="M119.17 40.31L117.64 39.14L122.59 32.63L124.06 33.74L123.22 34.85L123.29 34.91C124.13 34.37 125.12 34.42 126 35.09C126.88 35.75 127.17 36.69 126.85 37.61L126.92 37.67C127.76 37.16 128.84 37.25 129.78 37.97C130.98 38.87 131.23 40.28 130.12 41.74L126.79 46.11L125.26 44.94L128.4 40.81C129.02 40 128.8 39.26 128.18 38.79C127.44 38.22 126.62 38.4 126.06 39.14L122.97 43.2L121.46 42.05L124.66 37.86C125.17 37.18 125.05 36.41 124.4 35.91C123.74 35.41 122.79 35.55 122.19 36.35L119.17 40.31Z" fill="#FFFFFF" fill-opacity="1.000000" fill-rule="evenodd"/>
		<path id="Text" d="" fill="#FFFFFF" fill-opacity="1.000000" fill-rule="evenodd"/>
		<path id="Text" d="M136.37 58.38L135.38 56.67L144.83 51.2L146.88 54.75C148.13 56.92 147.48 58.84 145.67 59.89C143.86 60.94 141.87 60.52 140.61 58.34L139.56 56.53L136.37 58.38ZM144.38 53.74L140.97 55.72L141.88 57.3C142.61 58.57 143.66 58.72 144.67 58.14C145.67 57.56 146.03 56.59 145.29 55.31L144.38 53.74Z" fill="#FFFFFF" fill-opacity="1.000000" fill-rule="evenodd"/>
		<path id="Text" d="M141.43 69.19L140.8 67.37L148.53 64.69L149.14 66.46L147.86 66.9L147.88 66.98C148.88 66.96 149.64 67.52 149.94 68.41C150.01 68.61 150.09 68.91 150.12 69.08L148.44 69.66C148.44 69.49 148.36 69.09 148.26 68.78C147.91 67.78 146.96 67.28 145.97 67.62L141.43 69.19Z" fill="#FFFFFF" fill-opacity="1.000000" fill-rule="evenodd"/>
		<path id="Text" d="M148.59 83.43C146.08 83.77 144.2 82.49 143.87 80.11C143.55 77.73 145.02 76 147.53 75.65C150.04 75.31 151.92 76.59 152.25 78.97C152.57 81.34 151.1 83.08 148.59 83.43ZM147.8 77.59C146.31 77.79 145.23 78.6 145.41 79.91C145.58 81.2 146.84 81.69 148.33 81.49C149.81 81.28 150.91 80.48 150.74 79.18C150.56 77.87 149.28 77.39 147.8 77.59Z" fill="#FFFFFF" fill-opacity="1.000000" fill-rule="evenodd"/>
		<path id="Text" d="M141.42 90.99L141.59 89.07L152.8 90.1L152.63 91.98L151.28 91.86L151.27 91.97C151.83 92.32 152.64 92.99 152.51 94.43C152.34 96.32 150.73 97.67 148.01 97.42C145.33 97.17 143.94 95.59 144.11 93.67C144.24 92.27 145.13 91.72 145.75 91.47L145.76 91.39L141.42 90.99ZM150.98 93.76C151.1 92.52 150.14 91.75 148.55 91.61C146.97 91.46 145.85 92.06 145.74 93.28C145.62 94.55 146.67 95.32 148.2 95.46C149.72 95.6 150.87 95.04 150.98 93.76Z" fill="#FFFFFF" fill-opacity="1.000000" fill-rule="evenodd"/>
		<path id="Text" d="M142.69 109.58C141.45 108.82 140.97 107.28 141.56 105.47C142.33 103.12 144.36 102.2 146.8 103C149.2 103.79 150.36 105.78 149.63 108.01C149 109.92 147.26 111.17 144.53 110.27L143.97 110.09L145.75 104.67C144.41 104.25 143.37 104.78 142.98 105.96C142.73 106.75 142.87 107.47 143.45 107.94L142.69 109.58ZM148.19 107.56C148.55 106.47 147.95 105.46 146.98 105.08L145.78 108.73C146.84 109.07 147.84 108.62 148.19 107.56Z" fill="#FFFFFF" fill-opacity="1.000000" fill-rule="evenodd"/>
		<path id="Text" d="M137.19 115.76L138.14 114.08L145.26 118.11L144.34 119.74L143.15 119.07L143.11 119.14C143.79 119.87 143.87 120.82 143.4 121.63C143.3 121.82 143.13 122.07 143.02 122.21L141.47 121.33C141.6 121.22 141.85 120.89 142.01 120.61C142.53 119.69 142.28 118.64 141.37 118.13L137.19 115.76Z" fill="#FFFFFF" fill-opacity="1.000000" fill-rule="evenodd"/>
		<path id="Text" d="M137.75 129.3L136.73 130.55L135.57 129.61L136.59 128.36L133.32 125.68C132.71 125.19 132.33 125.39 132.03 125.76C131.88 125.95 131.77 126.15 131.73 126.24L130.35 125.54C130.43 125.34 130.59 124.98 130.92 124.54C131.81 123.39 133.1 123 134.29 123.99L137.81 126.87L138.55 125.97L139.7 126.91L138.97 127.81L140.49 129.05L139.27 130.54L137.75 129.3Z" fill="#FFFFFF" fill-opacity="1.000000" fill-rule="evenodd"/>
		<path id="Text" d="M122.84 131.19C122.36 129.89 122.53 128.74 123.69 127.77C124.09 127.44 124.51 127.21 124.78 127.12L125.4 128.57C124.6 128.92 124.21 129.33 124.53 130.27L124.69 130.72L132.32 135.23L130.75 136.55L125.34 133.01L125.27 133.06L127.78 139.02L126.2 140.33L122.84 131.19Z" fill="#FFFFFF" fill-opacity="1.000000" fill-rule="evenodd"/>
		<path id="Text" d="" fill="#FFFFFF" fill-opacity="1.000000" fill-rule="evenodd"/>
	</g>
	<rect id="Sub Container" rx="86.704544" width="173.409088" height="173.409088" transform="translate(0.795455 0.795455)" stroke="#262626" stroke-opacity="1.000000" stroke-width="1.590909"/>
</svg>
