<svg width="76.000000" height="52.000000" viewBox="0 0 76 52" fill="none" xmlns="http://www.w3.org/2000/svg" xmlns:xlink="http://www.w3.org/1999/xlink">
	<desc>
			Created with Pixso.
	</desc>
	<defs>
		<clipPath id="clip95_6823">
			<rect id="Icon" width="24.000000" height="24.000000" transform="translate(26.000000 14.000000)" fill="white" fill-opacity="0"/>
		</clipPath>
	</defs>
	<rect id="Button" rx="26.000000" width="76.000000" height="52.000000" fill="#703BF7" fill-opacity="1.000000"/>
	<rect id="Icon" width="24.000000" height="24.000000" transform="translate(26.000000 14.000000)" fill="#FFFFFF" fill-opacity="0"/>
	<g clip-path="url(#clip95_6823)">
		<path id="Vector" d="M33.54 35.75C42.6 35.75 47.55 28.24 47.55 21.74C47.55 21.53 47.55 21.31 47.54 21.1C48.5 20.4 49.33 19.54 50 18.55C49.1 18.95 48.14 19.21 47.17 19.32C48.2 18.71 48.97 17.74 49.33 16.6C48.37 17.17 47.31 17.58 46.21 17.8C45.47 17.01 44.48 16.48 43.41 16.31C42.35 16.13 41.25 16.32 40.29 16.83C39.34 17.34 38.58 18.15 38.13 19.14C37.68 20.12 37.57 21.23 37.81 22.29C35.86 22.19 33.94 21.68 32.2 20.79C30.45 19.91 28.91 18.66 27.67 17.14C27.04 18.23 26.85 19.51 27.13 20.73C27.41 21.95 28.15 23.02 29.19 23.72C28.41 23.69 27.65 23.48 26.96 23.1L26.96 23.16C26.96 24.3 27.35 25.4 28.07 26.28C28.79 27.16 29.8 27.77 30.91 27.99C30.19 28.19 29.43 28.22 28.69 28.07C29 29.05 29.62 29.91 30.44 30.52C31.26 31.13 32.26 31.48 33.29 31.5C31.54 32.87 29.39 33.61 27.17 33.61C26.78 33.61 26.39 33.58 26 33.53C28.25 34.98 30.87 35.75 33.54 35.75Z" fill="#FFFFFF" fill-opacity="1.000000" fill-rule="nonzero"/>
	</g>
</svg>
