<svg width="74.000000" height="74.000000" viewBox="0 0 74 74" fill="none" xmlns="http://www.w3.org/2000/svg" xmlns:xlink="http://www.w3.org/1999/xlink">
	<desc>
			Created with Pixso.
	</desc>
	<defs>
		<clipPath id="clip181_3299">
			<rect id="Icon" width="34.000000" height="34.000000" transform="translate(20.000000 20.000000)" fill="white" fill-opacity="0"/>
		</clipPath>
	</defs>
	<rect id="Icon Container" rx="36.500000" width="73.000000" height="73.000000" transform="translate(0.500000 0.500000)" fill="#141414" fill-opacity="1.000000"/>
	<g clip-path="url(#clip181_3299)">
		<path id="Vector" d="M37 24.25C34.06 24.25 31.68 26.62 31.68 29.56C31.68 32.49 34.06 34.87 37 34.87C39.93 34.87 42.31 32.49 42.31 29.56C42.31 26.62 39.93 24.25 37 24.25ZM23.18 33.81C23.18 31.46 25.08 29.56 27.43 29.56C29.78 29.56 31.68 31.46 31.68 33.81C31.68 36.15 29.78 38.06 27.43 38.06C25.08 38.06 23.18 36.15 23.18 33.81ZM46.56 29.56C44.21 29.56 42.31 31.46 42.31 33.81C42.31 36.15 44.21 38.06 46.56 38.06C48.91 38.06 50.81 36.15 50.81 33.81C50.81 31.46 48.91 29.56 46.56 29.56ZM37 37C33.61 37 30.63 38.76 28.93 41.41C27.76 43.25 27.25 45.46 27.49 47.62C27.53 47.95 27.72 48.25 28.02 48.42C30.66 49.94 33.73 50.81 37 50.81C40.26 50.81 43.33 49.94 45.97 48.42C46.27 48.25 46.46 47.95 46.5 47.62C46.74 45.46 46.23 43.25 45.06 41.41C43.36 38.76 40.38 37 37 37ZM27.2 40.19C27.18 40.21 27.16 40.24 27.14 40.27C25.78 42.41 25.15 44.95 25.34 47.46C24.48 47.33 23.65 47.12 22.84 46.84L22.68 46.78C22.38 46.68 22.18 46.41 22.15 46.09L22.14 45.92C22.13 45.78 22.12 45.64 22.12 45.5C22.12 42.64 24.37 40.31 27.2 40.19ZM46.85 40.27C48.21 42.41 48.84 44.95 48.65 47.46C49.51 47.33 50.34 47.12 51.15 46.84L51.31 46.78C51.61 46.68 51.81 46.41 51.84 46.09L51.85 45.92C51.86 45.78 51.87 45.64 51.87 45.5C51.87 42.64 49.62 40.31 46.8 40.19C46.81 40.21 46.83 40.24 46.85 40.27Z" fill="#A685FA" fill-opacity="1.000000" fill-rule="evenodd"/>
	</g>
	<rect id="Icon Container" rx="36.500000" width="73.000000" height="73.000000" transform="translate(0.500000 0.500000)" stroke="#703BF7" stroke-opacity="1.000000" stroke-width="1.000000"/>
</svg>
