<svg width="74.000000" height="74.000000" viewBox="0 0 74 74" fill="none" xmlns="http://www.w3.org/2000/svg" xmlns:xlink="http://www.w3.org/1999/xlink">
	<desc>
			Created with Pixso.
	</desc>
	<defs>
		<clipPath id="clip122_2075">
			<rect id="Icon" width="34.000000" height="34.000000" transform="translate(19.500000 20.000000)" fill="white" fill-opacity="0"/>
		</clipPath>
	</defs>
	<rect id="Icon Container" rx="36.500000" width="73.000000" height="73.000000" transform="translate(0.000000 0.500000)" fill="#141414" fill-opacity="1.000000"/>
	<g clip-path="url(#clip122_2075)">
		<path id="Union" d="M36.07 23.97C36.34 23.85 36.65 23.85 36.92 23.97C42.19 26.27 47.18 29.08 51.84 32.35C52.17 32.58 52.34 32.99 52.27 33.4C52.2 33.8 51.91 34.13 51.51 34.24C50.54 34.51 49.58 34.8 48.62 35.11C44.76 36.35 41.03 37.92 37.48 39.78L37.48 39.79C37.32 39.87 37.16 39.96 37 40.04C36.68 40.21 36.31 40.21 36 40.04C35.83 39.96 35.67 39.87 35.51 39.78C33.75 38.86 31.96 38.02 30.12 37.24L30.12 36.92C30.12 36.74 30.22 36.57 30.36 36.48C32.5 35.19 34.7 34 36.96 32.91C37.48 32.66 37.71 32.03 37.45 31.5C37.2 30.97 36.56 30.74 36.04 31C33.71 32.11 31.45 33.34 29.26 34.67C28.62 35.06 28.19 35.69 28.05 36.41C26.83 35.94 25.61 35.51 24.37 35.11C23.41 34.8 22.45 34.51 21.48 34.24C21.08 34.13 20.79 33.8 20.72 33.4C20.65 32.99 20.82 32.58 21.15 32.35C25.81 29.08 30.8 26.27 36.07 23.97ZM38 41.92C41.45 40.07 45.08 38.51 48.86 37.27C49.05 39.27 49.17 41.29 49.22 43.34C49.23 43.77 48.97 44.17 48.57 44.34C44.53 46.03 40.69 48.09 37.08 50.49C36.73 50.73 36.26 50.73 35.91 50.49C33.74 49.05 31.48 47.72 29.14 46.53C28.69 47.45 28.08 48.31 27.32 49.07C26.9 49.48 26.23 49.48 25.82 49.07C25.4 48.65 25.4 47.98 25.82 47.57C26.41 46.97 26.88 46.3 27.23 45.59C26.31 45.15 25.37 44.74 24.42 44.34C24.02 44.17 23.76 43.77 23.77 43.34C23.82 41.29 23.94 39.27 24.13 37.26C25.44 37.69 26.73 38.16 28 38.67L28 40.47C27.36 40.83 26.93 41.52 26.93 42.31C26.93 43.01 27.27 43.63 27.8 44.02C27.67 44.56 27.48 45.09 27.23 45.59C27.88 45.89 28.51 46.21 29.14 46.53C29.5 45.8 29.76 45.03 29.92 44.25C30.66 43.92 31.18 43.17 31.18 42.31C31.18 41.52 30.76 40.83 30.12 40.47L30.12 39.55C31.78 40.28 33.41 41.07 34.99 41.92C35.93 42.42 37.06 42.42 38 41.92Z" fill="#A685FA" fill-opacity="1.000000" fill-rule="evenodd"/>
	</g>
	<rect id="Icon Container" rx="36.500000" width="73.000000" height="73.000000" transform="translate(0.000000 0.500000)" stroke="#703BF7" stroke-opacity="1.000000" stroke-width="1.000000"/>
</svg>
