<svg width="160.000000" height="48.000000" viewBox="0 0 160 48" fill="none" xmlns="http://www.w3.org/2000/svg" xmlns:xlink="http://www.w3.org/1999/xlink">
	<desc>
			Created with Pixso.
	</desc>
	<defs/>
	<path id="Vector" d="M24 47.5C10.74 47.5 0 36.75 0 23.5L24 23.5L24 47.5Z" fill="#703BF7" fill-opacity="1.000000" fill-rule="evenodd"/>
	<path id="Vector" d="M0 -0.5C13.25 -0.5 24 10.24 24 23.5L0 23.5L0 -0.5Z" fill="#703BF7" fill-opacity="1.000000" fill-rule="evenodd"/>
	<path id="Vector" d="M24 47.5C37.25 47.5 48 36.75 48 23.5L24 23.5L24 47.5Z" fill="#703BF7" fill-opacity="1.000000" fill-rule="evenodd"/>
	<path id="Vector" d="M48 23.5C48 10.24 37.25 -0.5 24 -0.5L24 23.5L48 23.5Z" fill="#703BF7" fill-opacity="1.000000" fill-rule="evenodd"/>
	<path id="Vector" d="M156.82 34.36L156.82 26.35C156.82 25.42 156.52 24.66 155.92 24.07C155.34 23.47 154.59 23.17 153.67 23.17C153.05 23.17 152.5 23.3 152.02 23.57C151.54 23.84 151.16 24.22 150.89 24.7C150.62 25.18 150.49 25.73 150.49 26.35L149.24 25.65C149.24 24.6 149.47 23.66 149.94 22.85C150.4 22.02 151.03 21.38 151.84 20.91C152.67 20.43 153.6 20.19 154.62 20.19C155.66 20.19 156.58 20.46 157.39 21C158.2 21.52 158.84 22.21 159.3 23.05C159.76 23.88 160 24.75 160 25.65L160 34.36L156.82 34.36ZM147.31 34.36L147.31 20.48L150.49 20.48L150.49 34.36L147.31 34.36Z" fill="#FFFFFF" fill-opacity="1.000000" fill-rule="evenodd"/>
	<path id="Vector" d="M140.56 34.36L140.56 20.48L143.74 20.48L143.74 34.36L140.56 34.36ZM142.15 17.94C141.61 17.94 141.16 17.75 140.79 17.39C140.44 17.02 140.27 16.57 140.27 16.03C140.27 15.49 140.44 15.04 140.79 14.67C141.16 14.3 141.61 14.12 142.15 14.12C142.71 14.12 143.16 14.3 143.51 14.67C143.86 15.04 144.03 15.49 144.03 16.03C144.03 16.57 143.86 17.02 143.51 17.39C143.16 17.75 142.71 17.94 142.15 17.94Z" fill="#FFFFFF" fill-opacity="1.000000" fill-rule="evenodd"/>
	<path id="Vector" d="M131.54 34.64C130.15 34.64 128.9 34.34 127.78 33.72C126.68 33.08 125.8 32.22 125.15 31.12C124.51 30.02 124.19 28.79 124.19 27.42C124.19 26.05 124.51 24.83 125.15 23.75C125.78 22.65 126.64 21.78 127.72 21.15C128.82 20.51 130.03 20.19 131.36 20.19C132.65 20.19 133.79 20.49 134.77 21.09C135.78 21.69 136.56 22.5 137.12 23.54C137.69 24.59 137.98 25.77 137.98 27.1C137.98 27.33 137.96 27.57 137.92 27.82C137.91 28.05 137.87 28.31 137.81 28.6L126.42 28.6L126.42 26L136.16 26L134.98 27.04C134.94 26.19 134.77 25.48 134.48 24.9C134.2 24.33 133.78 23.88 133.24 23.57C132.72 23.27 132.08 23.11 131.31 23.11C130.5 23.11 129.79 23.28 129.2 23.63C128.6 23.98 128.14 24.47 127.81 25.11C127.48 25.72 127.32 26.46 127.32 27.33C127.32 28.2 127.49 28.96 127.84 29.61C128.18 30.27 128.67 30.78 129.31 31.15C129.95 31.49 130.68 31.67 131.51 31.67C132.22 31.67 132.88 31.54 133.47 31.29C134.09 31.04 134.61 30.67 135.03 30.19L137.06 32.25C136.38 33.04 135.56 33.63 134.6 34.04C133.64 34.44 132.62 34.64 131.54 34.64Z" fill="#FFFFFF" fill-opacity="1.000000" fill-rule="evenodd"/>
	<path id="Vector" d="M116.67 34.36L116.67 14.7L119.85 14.7L119.85 34.36L116.67 34.36ZM113.35 23.37L113.35 20.48L123.18 20.48L123.18 23.37L113.35 23.37Z" fill="#FFFFFF" fill-opacity="1.000000" fill-rule="evenodd"/>
	<path id="Vector" d="M103.6 34.64C102.35 34.64 101.22 34.33 100.19 33.69C99.19 33.05 98.39 32.2 97.79 31.12C97.22 30.02 96.93 28.8 96.93 27.45C96.93 26.08 97.22 24.86 97.79 23.78C98.39 22.68 99.19 21.81 100.19 21.17C101.22 20.52 102.35 20.19 103.6 20.19C104.66 20.19 105.6 20.42 106.41 20.89C107.24 21.33 107.89 21.95 108.37 22.74C108.86 23.53 109.1 24.42 109.1 25.42L109.1 29.41C109.1 30.41 108.86 31.31 108.37 32.1C107.91 32.89 107.27 33.52 106.44 33.98C105.61 34.42 104.66 34.64 103.6 34.64ZM104.12 31.64C105.3 31.64 106.24 31.24 106.96 30.45C107.69 29.66 108.06 28.65 108.06 27.42C108.06 26.59 107.89 25.86 107.56 25.22C107.24 24.59 106.77 24.09 106.18 23.75C105.6 23.38 104.91 23.2 104.12 23.2C103.35 23.2 102.67 23.38 102.07 23.75C101.49 24.09 101.03 24.59 100.69 25.22C100.36 25.86 100.19 26.59 100.19 27.42C100.19 28.25 100.36 28.98 100.69 29.61C101.03 30.25 101.49 30.75 102.07 31.12C102.67 31.46 103.35 31.64 104.12 31.64ZM107.85 34.36L107.85 30.63L108.4 27.24L107.85 23.89L107.85 20.48L111.03 20.48L111.03 34.36L107.85 34.36Z" fill="#FFFFFF" fill-opacity="1.000000" fill-rule="evenodd"/>
	<path id="Vector" d="M89.37 34.36L89.37 14.7L92.55 14.7L92.55 34.36L89.37 34.36ZM86.05 23.37L86.05 20.48L95.88 20.48L95.88 23.37L86.05 23.37Z" fill="#FFFFFF" fill-opacity="1.000000" fill-rule="evenodd"/>
	<path id="Vector" d="M79.38 34.64C78.61 34.64 77.87 34.55 77.16 34.36C76.44 34.14 75.79 33.85 75.19 33.49C74.59 33.1 74.07 32.64 73.63 32.1L75.65 30.08C76.14 30.64 76.68 31.06 77.3 31.35C77.94 31.62 78.65 31.75 79.44 31.75C80.15 31.75 80.69 31.65 81.06 31.44C81.43 31.22 81.61 30.92 81.61 30.51C81.61 30.09 81.43 29.76 81.09 29.53C80.74 29.3 80.29 29.1 79.73 28.95C79.19 28.78 78.61 28.6 78 28.43C77.4 28.26 76.82 28.03 76.26 27.74C75.72 27.43 75.28 27.01 74.93 26.49C74.58 25.97 74.41 25.3 74.41 24.47C74.41 23.58 74.61 22.82 75.02 22.19C75.44 21.55 76.03 21.06 76.78 20.71C77.55 20.37 78.47 20.19 79.53 20.19C80.64 20.19 81.63 20.39 82.48 20.8C83.34 21.18 84.07 21.77 84.64 22.56L82.62 24.59C82.22 24.08 81.75 23.71 81.23 23.46C80.71 23.21 80.12 23.08 79.44 23.08C78.8 23.08 78.31 23.18 77.97 23.37C77.62 23.56 77.45 23.84 77.45 24.21C77.45 24.6 77.62 24.89 77.97 25.11C78.31 25.32 78.76 25.5 79.3 25.65C79.85 25.81 80.43 25.98 81.03 26.18C81.65 26.35 82.23 26.6 82.77 26.93C83.32 27.24 83.78 27.66 84.12 28.2C84.47 28.72 84.64 29.4 84.64 30.25C84.64 31.6 84.17 32.67 83.23 33.46C82.28 34.25 81 34.64 79.38 34.64Z" fill="#FFFFFF" fill-opacity="1.000000" fill-rule="evenodd"/>
	<path id="Vector" d="M58.23 34.36L58.23 14.12L61.55 14.12L61.55 34.36L58.23 34.36ZM60.51 34.36L60.51 31.32L71.84 31.32L71.84 34.36L60.51 34.36ZM60.51 25.48L60.51 22.56L70.86 22.56L70.86 25.48L60.51 25.48ZM60.51 17.16L60.51 14.12L71.7 14.12L71.7 17.16L60.51 17.16Z" fill="#FFFFFF" fill-opacity="1.000000" fill-rule="evenodd"/>
</svg>
