<svg width="238.000000" height="72.000000" viewBox="0 0 238 72" fill="none" xmlns="http://www.w3.org/2000/svg" xmlns:xlink="http://www.w3.org/1999/xlink">
	<desc>
			Created with Pixso.
	</desc>
	<defs>
		<clipPath id="clip139_7780">
			<rect id="Icon" width="24.000000" height="24.000000" transform="translate(14.000000 24.000000)" fill="white" fill-opacity="0"/>
		</clipPath>
		<clipPath id="clip89_4025">
			<rect id="Button" rx="26.000000" width="52.000000" height="52.000000" transform="translate(0.000000 10.000000)" fill="white" fill-opacity="0"/>
		</clipPath>
		<clipPath id="clip89_4028">
			<rect id="Icon" width="24.000000" height="24.000000" transform="translate(76.000000 24.000000)" fill="white" fill-opacity="0"/>
		</clipPath>
		<clipPath id="clip89_4027">
			<rect id="Button" rx="26.000000" width="52.000000" height="52.000000" transform="translate(62.000000 10.000000)" fill="white" fill-opacity="0"/>
		</clipPath>
		<clipPath id="clip89_4031">
			<rect id="Icon" width="24.000000" height="24.000000" transform="translate(138.000000 24.000000)" fill="white" fill-opacity="0"/>
		</clipPath>
		<clipPath id="clip89_4030">
			<rect id="Button" rx="26.000000" width="52.000000" height="52.000000" transform="translate(124.000000 10.000000)" fill="white" fill-opacity="0"/>
		</clipPath>
		<clipPath id="clip89_4034">
			<rect id="Icon" width="24.000000" height="24.000000" transform="translate(200.000000 24.000000)" fill="white" fill-opacity="0"/>
		</clipPath>
		<clipPath id="clip89_4033">
			<rect id="Button" rx="26.000000" width="52.000000" height="52.000000" transform="translate(186.000000 10.000000)" fill="white" fill-opacity="0"/>
		</clipPath>
	</defs>
	<rect id="Button" rx="26.000000" width="52.000000" height="52.000000" transform="translate(0.000000 10.000000)" fill="#141414" fill-opacity="1.000000"/>
	<g clip-path="url(#clip89_4025)">
		<rect id="Icon" width="24.000000" height="24.000000" transform="translate(14.000000 24.000000)" fill="#FFFFFF" fill-opacity="0"/>
		<g clip-path="url(#clip139_7780)">
			<path id="Icon" d="M29.74 27.98L32 27.98L32 24.16C30.9 24.05 29.81 23.99 28.71 24C25.44 24 23.21 25.99 23.21 29.64L23.21 32.78L19.53 32.78L19.53 37.05L23.21 37.05L23.21 48L27.63 48L27.63 37.05L31.3 37.05L31.85 32.78L27.63 32.78L27.63 30.06C27.63 28.8 27.96 27.98 29.74 27.98Z" fill="#FFFFFF" fill-opacity="1.000000" fill-rule="nonzero"/>
		</g>
	</g>
	<rect id="Button" rx="26.000000" width="52.000000" height="52.000000" transform="translate(62.000000 10.000000)" fill="#141414" fill-opacity="1.000000"/>
	<g clip-path="url(#clip89_4027)">
		<rect id="Icon" width="24.000000" height="24.000000" transform="translate(76.000000 24.000000)" fill="#FFFFFF" fill-opacity="0"/>
		<g clip-path="url(#clip89_4028)">
			<path id="Vector" d="M96.47 26L79.53 26C79.33 25.99 79.15 26.03 78.97 26.1C78.79 26.17 78.63 26.27 78.49 26.41C78.36 26.54 78.25 26.7 78.17 26.87C78.1 27.05 78.06 27.23 78.06 27.43L78.06 44.57C78.06 44.76 78.1 44.94 78.17 45.12C78.25 45.29 78.36 45.45 78.49 45.58C78.63 45.72 78.79 45.82 78.97 45.89C79.15 45.96 79.33 46 79.53 46L96.47 46C96.66 46 96.84 45.96 97.02 45.89C97.2 45.82 97.36 45.72 97.5 45.58C97.63 45.45 97.74 45.29 97.82 45.12C97.89 44.94 97.93 44.76 97.93 44.57L97.93 27.43C97.93 27.23 97.89 27.05 97.82 26.87C97.74 26.7 97.63 26.54 97.5 26.41C97.36 26.27 97.2 26.17 97.02 26.1C96.84 26.03 96.66 25.99 96.47 26ZM84.08 42.74L81.08 42.74L81.08 33.74L84.08 33.74L84.08 42.74ZM82.58 32.48C82.17 32.48 81.77 32.31 81.48 32.02C81.19 31.73 81.03 31.33 81.03 30.92C81.03 30.5 81.19 30.1 81.48 29.81C81.77 29.52 82.17 29.36 82.58 29.36C82.8 29.33 83.03 29.35 83.24 29.42C83.45 29.49 83.64 29.6 83.81 29.74C83.97 29.89 84.1 30.07 84.19 30.27C84.29 30.48 84.33 30.69 84.33 30.92C84.33 31.14 84.29 31.35 84.19 31.56C84.1 31.76 83.97 31.94 83.81 32.09C83.64 32.23 83.45 32.34 83.24 32.41C83.03 32.48 82.8 32.5 82.58 32.48ZM94.91 42.74L91.91 42.74L91.91 37.91C91.91 36.7 91.48 35.91 90.39 35.91C90.05 35.91 89.72 36.01 89.44 36.21C89.17 36.4 88.96 36.68 88.85 37C88.77 37.23 88.73 37.48 88.75 37.73L88.75 42.73L85.75 42.73C85.75 42.73 85.75 34.55 85.75 33.73L88.75 33.73L88.75 35C89.02 34.52 89.41 34.13 89.89 33.87C90.37 33.6 90.91 33.48 91.46 33.5C93.46 33.5 94.91 34.79 94.91 37.56L94.91 42.74Z" fill="#FFFFFF" fill-opacity="1.000000" fill-rule="nonzero"/>
		</g>
	</g>
	<rect id="Button" rx="26.000000" width="52.000000" height="52.000000" transform="translate(124.000000 10.000000)" fill="#141414" fill-opacity="1.000000"/>
	<g clip-path="url(#clip89_4030)">
		<rect id="Icon" width="24.000000" height="24.000000" transform="translate(138.000000 24.000000)" fill="#FFFFFF" fill-opacity="0"/>
		<g clip-path="url(#clip89_4031)">
			<path id="Vector" d="M160 29.8C159.24 30.12 158.45 30.34 157.64 30.44C158.49 29.92 159.14 29.12 159.45 28.17C158.64 28.65 157.76 28.98 156.84 29.17C156.22 28.5 155.4 28.05 154.5 27.9C153.61 27.75 152.69 27.9 151.89 28.33C151.09 28.76 150.45 29.44 150.08 30.27C149.71 31.09 149.62 32.02 149.84 32.91C148.2 32.82 146.61 32.4 145.15 31.66C143.7 30.92 142.41 29.88 141.39 28.62C141.02 29.25 140.83 29.96 140.84 30.69C140.83 31.36 141 32.02 141.32 32.62C141.63 33.21 142.09 33.72 142.66 34.1C142 34.08 141.37 33.9 140.8 33.59L140.8 33.64C140.8 34.58 141.13 35.49 141.73 36.22C142.33 36.95 143.17 37.45 144.1 37.64C143.74 37.74 143.37 37.8 143 37.81C142.74 37.8 142.48 37.78 142.23 37.74C142.49 38.55 143 39.26 143.69 39.77C144.37 40.28 145.2 40.56 146.06 40.58C144.61 41.71 142.83 42.33 141 42.34C140.66 42.34 140.33 42.32 140 42.28C141.87 43.49 144.05 44.13 146.28 44.13C147.83 44.14 149.35 43.85 150.78 43.27C152.2 42.69 153.5 41.83 154.59 40.74C155.68 39.65 156.54 38.36 157.13 36.94C157.71 35.51 158.01 33.99 158 32.45C158 32.28 158 32.1 158 31.92C158.78 31.33 159.46 30.61 160 29.8Z" fill="#FFFFFF" fill-opacity="1.000000" fill-rule="nonzero"/>
		</g>
	</g>
	<rect id="Button" rx="26.000000" width="52.000000" height="52.000000" transform="translate(186.000000 10.000000)" fill="#141414" fill-opacity="1.000000"/>
	<g clip-path="url(#clip89_4033)">
		<rect id="Icon" width="24.000000" height="24.000000" transform="translate(200.000000 24.000000)" fill="#FFFFFF" fill-opacity="0"/>
		<g clip-path="url(#clip89_4034)">
			<path id="Vector" d="M223 33.71C223.04 32.27 222.73 30.85 222.09 29.58C221.65 29.05 221.04 28.7 220.37 28.58C217.58 28.32 214.79 28.22 212 28.27C209.21 28.22 206.43 28.32 203.66 28.57C203.11 28.66 202.6 28.92 202.2 29.31C201.3 30.13 201.2 31.56 201.1 32.75C200.95 34.91 200.95 37.08 201.1 39.24C201.12 39.91 201.22 40.58 201.4 41.24C201.52 41.74 201.76 42.21 202.11 42.6C202.51 43 203.03 43.27 203.6 43.37C205.75 43.64 207.92 43.75 210.1 43.71C213.6 43.76 216.67 43.71 220.3 43.42C220.87 43.33 221.41 43.05 221.83 42.64C222.11 42.36 222.31 42.02 222.44 41.64C222.79 40.55 222.97 39.4 222.96 38.25C223 37.68 223 34.31 223 33.71ZM209.74 38.85L209.74 32.65L215.66 35.77C214 36.68 211.81 37.73 209.74 38.85Z" fill="#FFFFFF" fill-opacity="1.000000" fill-rule="nonzero"/>
		</g>
	</g>
</svg>
