<svg width="44.000000" height="44.000000" viewBox="0 0 44 44" fill="none" xmlns="http://www.w3.org/2000/svg" xmlns:xlink="http://www.w3.org/1999/xlink">
	<desc>
			Created with Pixso.
	</desc>
	<defs>
		<clipPath id="clip115_1668">
			<rect id="Icon" width="24.000000" height="24.000000" transform="translate(9.750000 10.000000)" fill="white" fill-opacity="0"/>
		</clipPath>
	</defs>
	<rect id="Button" rx="22.000000" width="44.000000" height="44.000000" transform="translate(-0.250000 0.000000)" fill="#703BF7" fill-opacity="1.000000"/>
	<rect id="Icon" width="24.000000" height="24.000000" transform="translate(9.750000 10.000000)" fill="#000000" fill-opacity="0"/>
	<g clip-path="url(#clip115_1668)">
		<path id="Fill-1" d="M31.17 12.57C30.67 12.06 29.93 11.87 29.24 12.07L13.15 16.72C12.42 16.92 11.91 17.5 11.77 18.23C11.63 18.98 12.12 19.93 12.77 20.32L17.8 23.4C18.32 23.71 18.98 23.63 19.41 23.2L25.17 17.44C25.46 17.14 25.94 17.14 26.23 17.44C26.52 17.73 26.52 18.2 26.23 18.5L20.46 24.26C20.03 24.69 19.95 25.36 20.27 25.87L23.34 30.92C23.7 31.52 24.32 31.86 25 31.86C25.08 31.86 25.17 31.86 25.25 31.85C26.03 31.75 26.65 31.22 26.88 30.47L31.65 14.5C31.86 13.82 31.67 13.08 31.17 12.57Z" fill="#FFFFFF" fill-opacity="1.000000" fill-rule="nonzero"/>
		<g opacity="0.400000">
			<path id="Combined-Shape" d="M19.2 29.14C19.49 29.43 19.49 29.91 19.2 30.2L17.83 31.56C17.68 31.71 17.49 31.78 17.3 31.78C17.11 31.78 16.92 31.71 16.77 31.56C16.48 31.27 16.48 30.8 16.77 30.5L18.14 29.14C18.43 28.85 18.9 28.85 19.2 29.14ZM18.41 25.35C18.7 25.64 18.7 26.12 18.41 26.41L17.05 27.78C16.9 27.92 16.71 28 16.52 28C16.33 28 16.13 27.92 15.99 27.78C15.69 27.48 15.69 27.01 15.99 26.72L17.35 25.35C17.64 25.06 18.12 25.06 18.41 25.35ZM14.65 24.16C14.94 24.45 14.94 24.92 14.65 25.22L13.29 26.58C13.14 26.73 12.95 26.8 12.76 26.8C12.56 26.8 12.37 26.73 12.23 26.58C11.93 26.29 11.93 25.82 12.23 25.52L13.59 24.16C13.88 23.86 14.36 23.86 14.65 24.16Z" fill="#FFFFFF" fill-opacity="1.000000" fill-rule="nonzero"/>
		</g>
	</g>
</svg>
