<svg width="74.000000" height="74.000000" viewBox="0 0 74 74" fill="none" xmlns="http://www.w3.org/2000/svg" xmlns:xlink="http://www.w3.org/1999/xlink">
	<desc>
			Created with Pixso.
	</desc>
	<defs>
		<clipPath id="clip122_2073">
			<rect id="Icon" width="34.000000" height="34.000000" transform="translate(20.000000 20.000000)" fill="white" fill-opacity="0"/>
		</clipPath>
	</defs>
	<rect id="Icon Container" rx="36.500000" width="73.000000" height="73.000000" transform="translate(0.500000 0.500000)" fill="#141414" fill-opacity="1.000000"/>
	<g clip-path="url(#clip122_2073)">
		<path id="Star 5 (Stroke)" d="M35.28 24.54C35.91 23.02 38.08 23.02 38.71 24.54L41.66 31.64L49.32 32.25C50.97 32.38 51.63 34.44 50.38 35.51L44.55 40.51L46.33 47.98C46.71 49.59 44.96 50.86 43.55 50L37 46L30.44 50C29.03 50.86 27.28 49.59 27.66 47.98L29.45 40.51L23.61 35.51C22.36 34.44 23.02 32.38 24.67 32.25L32.33 31.64L35.28 24.54Z" fill="#A685FA" fill-opacity="1.000000" fill-rule="evenodd"/>
	</g>
	<rect id="Icon Container" rx="36.500000" width="73.000000" height="73.000000" transform="translate(0.500000 0.500000)" stroke="#703BF7" stroke-opacity="1.000000" stroke-width="1.000000"/>
</svg>
